<svg xmlns="http://www.w3.org/2000/svg" viewBox="0 0 200 200" fill="none" stroke="#8B9A6B" stroke-width="5" stroke-linecap="round" stroke-linejoin="round">
  <rect x="45" y="25" width="110" height="150" rx="4"/>
  <rect x="55" y="40" width="90" height="125" rx="2"/>
  <rect x="70" y="48" width="60" height="16" rx="2"/>
  <line x1="100" y1="48" x2="100" y2="64"/>
  <rect x="62" y="72" width="32" height="10" rx="1.5"/>
  <rect x="62" y="88" width="32" height="10" rx="1.5"/>
  <rect x="62" y="104" width="32" height="10" rx="1.5"/>
  <rect x="62" y="120" width="32" height="10" rx="1.5"/>
  <rect x="62" y="136" width="32" height="10" rx="1.5"/>
  <rect x="106" y="72" width="32" height="10" rx="1.5"/>
  <rect x="106" y="88" width="32" height="10" rx="1.5"/>
  <rect x="106" y="104" width="32" height="10" rx="1.5"/>
  <rect x="106" y="120" width="32" height="10" rx="1.5"/>
  <rect x="106" y="136" width="32" height="10" rx="1.5"/>
  <line x1="100" y1="68" x2="100" y2="150"/>
</svg>