<svg xmlns="http://www.w3.org/2000/svg" viewBox="0 0 200 200" fill="none" stroke="#8B9A6B" stroke-width="5" stroke-linecap="round" stroke-linejoin="round">
  <rect x="30" y="45" width="140" height="125" rx="4"/>
  <line x1="30" y1="75" x2="170" y2="75"/>
  <line x1="30" y1="105" x2="170" y2="105"/>
  <line x1="30" y1="135" x2="170" y2="135"/>
  <rect x="40" y="50" width="52" height="20" rx="2" stroke-width="2.5"/>
  <rect x="108" y="50" width="52" height="20" rx="2" stroke-width="2.5"/>
  <rect x="40" y="80" width="52" height="20" rx="2" stroke-width="2.5"/>
  <rect x="108" y="80" width="52" height="20" rx="2" stroke-width="2.5"/>
  <rect x="40" y="110" width="52" height="20" rx="2" stroke-width="2.5"/>
  <rect x="108" y="110" width="52" height="20" rx="2" stroke-width="2.5"/>
  <rect x="40" y="140" width="52" height="20" rx="2" stroke-width="2.5"/>
  <rect x="108" y="140" width="52" height="20" rx="2" stroke-width="2.5"/>
  <circle cx="155" cy="152" r="4" fill="#8B9A6B"/>
</svg>